<svg width="25" height="25" viewBox="0 0 25 25" fill="none" xmlns="http://www.w3.org/2000/svg">
<g clip-path="url(#clip0)">
<path d="M21.3405 3.33275C19.9364 1.93041 18.285 0.932534 16.5242 0.335571V4.10632C17.3719 4.52844 18.1755 5.07771 18.8802 5.78418C22.4002 9.3059 22.4002 15.0318 18.8802 18.5518C15.3602 22.0664 9.63789 22.0664 6.11263 18.5518C2.59621 15.0283 2.59621 9.3059 6.11263 5.78418C6.12147 5.77358 6.14972 5.75592 6.16209 5.74002H6.16562L8.25145 7.82233L8.23909 1.20982L1.63012 1.20099L3.70712 3.27799C3.69476 3.29919 3.67533 3.32038 3.65944 3.33275C-1.22046 8.21088 -1.22046 16.125 3.65944 21.0032C8.5464 25.8866 16.4553 25.8866 21.3405 21.0032C26.2168 16.125 26.2221 8.21088 21.3405 3.33275Z" fill="#EFE5CB"/>
</g>
<defs>
<clipPath id="clip0">
<rect width="25" height="25" fill="white"/>
</clipPath>
</defs>
</svg>
