<svg width="20" height="20" viewBox="0 0 20 20" fill="none" xmlns="http://www.w3.org/2000/svg">
<path d="M4.57194 8.57891C4.67346 8.47775 4.78359 8.39238 4.89946 8.31812L12.6508 0.567148C13.407 -0.188686 14.6338 -0.189044 15.3904 0.567507C16.1469 1.3237 16.1469 2.55018 15.3904 3.30709L8.71486 9.9826L15.4248 16.6929C16.1814 17.4491 16.1814 18.6752 15.4248 19.4325C15.0464 19.8113 14.5502 20 14.0552 20C13.5602 20 13.0637 19.8113 12.6856 19.4325L4.89946 11.6457C4.78359 11.5714 4.67274 11.486 4.57194 11.3849C4.18523 10.9982 3.9987 10.4888 4.00802 9.98189C3.9987 9.47501 4.18523 8.96598 4.57194 8.57891Z" fill="black"/>
</svg>
